<svg xmlns="http://www.w3.org/2000/svg" version="1.0" width="300.000000pt" height="300.000000pt" viewBox="0 0 300.000000 300.000000" preserveAspectRatio="xMidYMid meet">
<metadata fill="#34d399">
Created by potrace 1.10, written by Peter Selinger 2001-2011
</metadata>
<g transform="translate(0.000000,300.000000) scale(0.100000,-0.100000)" fill="#7c3aed" stroke="none">
<path d="M1345 2635 c-49 -12 -99 -25 -110 -29 -11 -4 -33 -13 -50 -19 -76 -27 -175 -96 -261 -183 -50 -50 -98 -104 -107 -120 -102 -189 -128 -281 -130 -449 -1 -101 3 -135 26 -217 54 -200 160 -351 329 -471 294 -210 710 -208 1000 5 137 101 235 242 299 433 21 63 24 88 24 235 -1 146 -4 174 -25 240 -56 178 -161 332 -295 434 -182 138 -471 196 -700 141z m395 -30 c36 -9 110 -38 165 -65 211 -101 360 -294 416 -537 28 -121 23 -299 -11 -408 -48 -152 -161 -319 -274 -402 -189 -139 -418 -197 -636 -159 -185 33 -343 118 -472 255 -276 294 -288 739 -29 1048 128 152 292 246 498 283 69 13 267 4 343 -15z" fill="#7c3aed"/>
<path d="M1345 2550 c-265 -69 -451 -239 -538 -488 -39 -112 -49 -278 -23 -395 32 -141 130 -307 233 -393 164 -137 317 -194 521 -195 232 0 454 106 587 283 57 76 118 199 142 288 26 97 24 272 -5 374 -77 272 -266 457 -536 526 -105 27 -281 27 -381 0z m185 -55 c3 -27 1 -58 -5 -67 -6 -11 -6 -21 0 -27 6 -6 8 -33 7 -60 l-4 -51 -209 0 c-233 0 -254 -5 -289 -63 -18 -29 -20 -51 -20 -214 l0 -183 -110 0 c-71 0 -110 4 -110 11 0 5 5 42 11 81 40 261 210 477 449 572 59 24 207 56 245 53 28 -2 30 -5 35 -52z m203 24 c254 -64 438 -253 507 -523 11 -44 20 -101 20 -127 l0 -47 -117 2 -118 3 -3 34 c-4 53 -40 151 -72 203 -26 40 -27 46 -12 46 26 0 58 34 72 75 36 109 -95 194 -179 116 -19 -18 -31 -39 -31 -55 0 -29 -7 -32 -34 -11 -24 18 -98 42 -157 50 l-46 6 -6 46 c-3 27 0 54 6 65 9 13 9 20 0 29 -10 10 -8 72 3 107 5 16 47 11 167 -19z m217 -229 c52 -28 40 -128 -18 -148 -28 -9 -33 -7 -71 32 -35 36 -41 47 -35 70 12 48 76 72 124 46z m-540 -24 c0 -3 -25 -16 -55 -30 -233 -106 -327 -428 -194 -662 27 -47 110 -134 154 -161 16 -10 2 -12 -81 -12 -56 -1 -115 4 -132 10 -62 21 -62 21 -62 427 l0 369 26 24 c23 22 36 24 152 30 70 3 142 6 160 7 17 1 32 0 32 -2z m269 -25 c173 -54 286 -190 313 -377 13 -96 2 -160 -46 -260 -81 -167 -266 -265 -443 -234 -297 51 -462 364 -338 637 32 71 66 114 129 162 111 86 254 113 385 72z m-669 -602 c0 -246 11 -259 212 -259 94 0 144 -5 215 -22 l92 -23 3 -38 c4 -49 22 -48 26 1 l3 39 57 6 c148 13 281 107 351 248 22 43 43 100 46 126 12 89 3 83 132 83 l116 0 -7 -62 c-17 -148 -89 -299 -199 -414 -80 -85 -154 -133 -266 -174 -89 -33 -210 -55 -223 -42 -11 11 -14 82 -4 104 6 13 3 20 -9 24 -23 9 -42 -12 -30 -34 6 -9 8 -35 5 -57 l-5 -40 -60 3 c-133 6 -276 64 -400 162 -147 118 -238 281 -270 488 l-7 42 111 0 111 0 0 -161z" fill="#7c3aed"/>
<path d="M1095 2210 c-7 -12 12 -50 25 -50 14 0 12 14 -2 28 -9 9 -7 12 11 12 12 0 19 4 16 10 -8 13 -42 13 -50 0z" fill="#7c3aed"/>
<path d="M1085 2110 c-18 -20 -18 -21 5 -45 l24 -26 25 25 c24 25 24 26 6 46 -23 25 -37 25 -60 0z" fill="#7c3aed"/>
<path d="M1266 2111 c-7 -11 18 -33 27 -24 4 3 7 12 7 20 0 15 -26 18 -34 4z" fill="#7c3aed"/>
<path d="M1247 2042 c-35 -38 -11 -76 44 -70 47 4 59 31 29 63 -28 30 -51 32 -73 7z" fill="#7c3aed"/>
<path d="M1467 1937 c-66 -64 -87 -91 -92 -119 -18 -96 68 -169 137 -118 16 12 31 20 34 18 2 -3 -11 -30 -30 -60 l-34 -57 77 -3 c42 -2 77 -3 79 -2 1 1 -13 25 -33 55 -19 29 -35 57 -35 61 0 12 18 10 25 -3 4 -5 18 -14 31 -20 38 -14 87 11 108 55 28 59 15 89 -82 189 -47 48 -89 87 -92 87 -4 0 -46 -37 -93 -83z m170 -39 c70 -72 80 -95 59 -136 -19 -37 -37 -44 -76 -31 -29 11 -92 8 -136 -6 -15 -5 -30 1 -49 17 -43 37 -30 80 47 157 34 33 69 61 78 61 8 0 43 -28 77 -62z" fill="#7c3aed"/>
<path d="M1825 1671 c-3 -6 -4 -15 -1 -20 3 -5 -3 -11 -14 -14 -24 -6 -26 -29 -4 -62 20 -31 44 -32 72 -2 27 29 29 57 3 57 -12 0 -21 8 -23 22 -3 24 -23 35 -33 19z" fill="#7c3aed"/>
<path d="M2211 2554 c-42 -53 -16 -114 49 -114 30 0 43 6 59 26 12 15 21 34 21 44 0 34 -39 70 -75 70 -24 0 -39 -7 -54 -26z m84 -14 c24 -26 13 -68 -20 -76 -51 -13 -76 50 -33 80 29 20 31 20 53 -4z" fill="#7c3aed"/>
<path d="M559 1834 c-16 -20 -1 -48 29 -52 29 -4 41 37 16 55 -23 17 -29 16 -45 -3z m46 -24 c0 -22 -29 -18 -33 3 -3 14 1 18 15 15 10 -2 18 -10 18 -18z" fill="#7c3aed"/>
<path d="M2431 1616 c-6 -7 -11 -24 -11 -37 0 -13 0 -31 -1 -39 -1 -8 0 -21 2 -29 3 -9 -8 -17 -29 -21 -42 -10 -53 -20 -17 -17 15 1 30 -4 32 -10 7 -19 -27 -29 -39 -12 -8 11 -9 11 -5 -3 7 -21 -13 -39 -39 -32 -10 2 -26 0 -34 -6 -12 -8 -13 -13 -2 -30 10 -16 10 -24 0 -40 -10 -15 -10 -24 -1 -39 9 -15 8 -23 -4 -40 -13 -20 -13 -24 0 -39 13 -15 14 -20 2 -36 -10 -13 -11 -24 -5 -37 6 -9 7 -30 4 -46 -7 -37 18 -63 45 -46 12 8 23 8 36 1 13 -8 24 -7 37 1 12 7 24 8 36 2 11 -6 24 -6 35 1 15 8 17 17 12 48 -4 24 -2 41 5 45 7 4 8 11 2 18 -12 15 -12 126 0 133 4 3 5 11 1 17 -4 6 -8 73 -9 148 -1 76 -5 142 -9 148 -9 15 -30 14 -44 -3z m-103 -229 c2 -10 -3 -17 -12 -17 -18 0 -29 16 -21 31 9 14 29 6 33 -14z m72 3 c0 -11 -6 -20 -14 -20 -18 0 -29 16 -21 30 11 18 35 11 35 -10z m70 6 c0 -20 -19 -31 -32 -18 -6 6 -7 15 -4 21 10 16 36 13 36 -3z m-140 -82 c0 -17 -26 -19 -36 -3 -7 12 15 31 28 23 4 -3 8 -12 8 -20z m74 -5 c-7 -13 -31 -11 -40 2 -9 16 18 30 33 17 7 -6 10 -14 7 -19z m67 -2 c-5 -5 -17 -7 -26 -3 -14 5 -15 9 -5 21 10 12 16 13 27 4 9 -8 10 -16 4 -22z m-137 -56 c3 -5 0 -13 -7 -19 -15 -13 -42 1 -33 17 9 13 33 15 40 2z m69 3 c9 -10 -4 -34 -18 -34 -17 0 -28 17 -20 30 7 11 28 13 38 4z m70 -1 c4 -3 2 -12 -4 -20 -9 -10 -15 -10 -25 -2 -8 6 -11 15 -8 20 6 11 28 12 37 2z m-145 -86 c2 -10 -3 -17 -12 -17 -18 0 -29 16 -21 31 9 14 29 6 33 -14z m70 -14 c-10 -12 -14 -12 -27 2 -14 14 -14 17 -1 25 21 13 44 -8 28 -27z m77 16 c0 -7 -8 -15 -17 -17 -18 -3 -25 18 -11 32 10 10 28 1 28 -15z m-142 -65 c9 -9 -4 -34 -18 -34 -14 0 -27 25 -18 34 4 3 12 6 18 6 6 0 14 -3 18 -6z m75 -11 c5 -18 -28 -29 -38 -12 -5 7 -6 17 -3 22 7 12 35 5 41 -10z m62 -3 c0 -11 -7 -20 -15 -20 -8 0 -15 9 -15 20 0 11 7 20 15 20 8 0 15 -9 15 -20z" fill="#7c3aed"/>
<path d="M787 1172 c-32 -36 -9 -112 34 -112 28 0 59 36 59 68 0 54 -60 81 -93 44z m57 -18 c20 -19 20 -28 1 -44 -31 -26 -82 13 -56 44 17 20 35 20 55 0z" fill="#7c3aed"/>
<path d="M640 865 c-7 -8 -24 -15 -39 -15 -32 0 -51 -16 -51 -45 0 -12 -7 -30 -15 -41 -16 -21 -20 -60 -6 -68 4 -3 11 -20 15 -38 8 -40 33 -68 61 -68 13 0 28 -7 35 -15 16 -19 64 -20 79 -1 6 7 24 16 39 19 28 6 34 14 67 95 17 39 17 43 2 60 -10 10 -17 28 -17 40 0 25 -36 62 -60 62 -9 0 -25 7 -36 15 -25 19 -58 19 -74 0z m59 -14 c18 -12 5 -51 -18 -51 -27 0 -42 20 -30 42 11 20 26 23 48 9z m-89 -36 c15 -18 6 -45 -13 -45 -8 0 -20 7 -27 15 -10 12 -10 18 0 30 16 19 24 19 40 0z m169 1 c9 -11 8 -18 -4 -30 -28 -28 -52 -14 -40 24 7 23 28 26 44 6z m-69 -65 c5 -11 10 -27 10 -35 0 -20 -36 -39 -60 -31 -25 8 -37 50 -20 70 18 21 57 19 70 -4z m-113 -17 c3 -8 -2 -23 -11 -32 -15 -15 -17 -15 -32 0 -21 21 -11 48 16 48 11 0 23 -7 27 -16z m211 -12 c4 -28 -24 -40 -45 -19 -21 21 -9 49 19 45 15 -2 24 -11 26 -26z m-190 -76 c-4 -25 -36 -34 -44 -12 -8 21 13 46 32 39 8 -3 14 -15 12 -27z m158 -14 c-18 -19 -46 -9 -46 17 0 26 21 32 43 13 15 -14 16 -17 3 -30z m-72 -5 c9 -15 7 -21 -8 -32 -22 -17 -46 -4 -46 25 0 35 34 39 54 7z" fill="#7c3aed"/>
<path d="M2291 861 c-16 -10 -7 -64 14 -81 20 -17 74 -15 92 3 22 22 9 65 -23 77 -31 12 -65 13 -83 1z m53 -27 c15 -14 16 -14 16 2 0 17 1 17 16 2 13 -12 14 -20 5 -36 -13 -25 -41 -19 -41 9 0 30 -20 22 -21 -8 l-2 -28 -4 28 c-2 15 -9 25 -14 22 -10 -7 -12 8 -2 18 11 12 31 8 47 -9z" fill="#7c3aed"/>
<path d="M913 830 c-26 -10 -63 -66 -63 -93 0 -10 12 -34 26 -53 l27 -35 -23 -24 c-33 -35 -21 -68 30 -89 57 -23 91 -20 136 10 33 23 41 25 59 13 75 -48 146 -51 203 -9 l31 23 21 -26 c21 -26 25 -27 118 -27 93 0 97 1 127 30 29 28 35 30 61 20 16 -6 38 -19 49 -29 14 -12 37 -18 76 -19 61 0 73 10 83 68 3 14 5 27 5 29 1 2 24 -19 51 -46 49 -49 52 -51 105 -49 42 1 59 7 75 24 28 29 71 28 108 -3 17 -14 36 -25 44 -25 22 0 51 37 45 57 -32 107 -85 219 -116 247 -18 17 -24 18 -46 6 -13 -7 -37 -38 -52 -68 -38 -73 -53 -78 -53 -15 0 54 -21 93 -50 93 -21 0 -63 -47 -54 -61 3 -5 2 -14 -2 -20 -4 -7 -20 2 -43 24 -20 20 -48 40 -63 46 -23 9 -30 7 -43 -12 -8 -12 -15 -40 -15 -64 0 -61 -15 -61 -43 1 -48 105 -99 108 -143 8 -49 -114 -59 -127 -95 -127 l-34 0 -3 85 c-2 74 -6 87 -25 102 -30 23 -39 22 -72 -8 -24 -22 -29 -23 -44 -11 -26 23 -88 39 -130 34 -21 -2 -54 -16 -74 -31 -28 -22 -37 -24 -44 -13 -25 41 -96 59 -150 37z m97 -26 c44 -18 48 -25 25 -44 -12 -10 -19 -10 -27 -2 -17 17 -68 15 -74 -3 -9 -22 10 -40 56 -54 70 -21 89 -82 40 -131 -25 -25 -83 -26 -128 -2 -32 18 -32 18 -14 35 18 17 21 17 50 0 25 -14 36 -15 49 -7 33 20 21 44 -37 72 -68 33 -85 67 -54 109 12 15 32 31 45 34 13 4 25 7 26 8 2 1 21 -6 43 -15z m394 10 c13 -5 16 -25 16 -116 l0 -111 49 6 c55 7 61 4 54 -24 -5 -17 -14 -19 -79 -19 l-74 0 0 128 c0 111 3 142 16 142 1 0 9 -3 18 -6z m269 -23 c9 -16 37 -77 61 -135 l45 -106 -25 0 c-19 0 -29 8 -37 30 -11 28 -15 30 -65 30 -50 0 -54 -2 -63 -30 -8 -22 -17 -30 -35 -30 l-24 0 26 68 c33 90 85 202 93 202 4 0 14 -13 24 -29z m217 -59 c36 -44 67 -81 70 -81 3 -1 6 35 7 80 1 87 4 95 28 85 13 -5 15 -25 13 -138 -2 -81 -7 -133 -13 -133 -5 1 -39 40 -75 87 -36 48 -69 87 -73 87 -5 1 -6 -12 -2 -29 4 -16 3 -54 0 -85 -6 -45 -11 -55 -26 -55 -18 0 -19 9 -19 136 0 104 3 135 13 132 6 -3 41 -41 77 -86z m301 47 c11 -23 37 -78 56 -123 19 -45 37 -87 40 -93 3 -9 -4 -13 -21 -13 -21 0 -29 7 -37 28 -9 27 -13 28 -66 27 -49 -2 -57 -5 -70 -28 -9 -18 -22 -27 -38 -27 l-24 0 43 98 c61 137 79 172 88 172 4 0 17 -19 29 -41z m-896 -2 c59 -59 59 -135 0 -194 -27 -27 -41 -33 -76 -33 -109 0 -174 103 -125 198 21 41 60 61 120 62 41 0 53 -5 81 -33z" fill="#7c3aed"/>
<path d="M1633 700 c-19 -43 -19 -45 -1 -48 10 -2 26 -2 36 0 17 3 17 5 1 48 l-16 44 -20 -44z" fill="#7c3aed"/>
<path d="M2141 703 c-7 -21 -14 -42 -17 -48 -2 -6 13 -10 36 -10 23 0 39 4 37 10 -3 6 -10 27 -18 48 -7 20 -16 37 -19 37 -4 0 -12 -17 -19 -37z" fill="#7c3aed"/>
<path d="M1170 757 c-55 -28 -63 -112 -13 -144 38 -25 82 -21 110 11 41 48 27 116 -28 135 -39 14 -38 14 -69 -2z m82 -53 c27 -59 -52 -104 -87 -50 -13 19 -14 29 -6 45 24 44 74 47 93 5z" fill="#7c3aed"/>
</g>
</svg>